PathFileType	4	(X/Y/Z)	/Users/itak/Documents/Research/Walk-IL/dataset/trc/00457_00167.trc
DataRate	CameraRate	NumFrames	NumMarkers	Units	OrigDataRate	OrigDataStartFrame	OrigNumFrames
100.000000	100.000000	4	53	mm	100.000000	0	557
Frame#	Time	RPSI			LPSI			L3			STRN			T10			C7			CLAV			RBAK			LBAK			LSHO			LUPA			LAEL			LAOL			LWTS			LWPS			LFRA			LIFD			LHPS			LHTS			RSHO			RUPA			RAEL			RAOL			RWTS			RWPS			RFRA			RIFD			RHTS			RHPS			RBHD			LFHD			RFHD			LBHD			LHIP			RHIP			RASI			LASI			LKNE			LTHI			LANK			LTIP			LTOE			LMT1			LMT5			LHEE			RKNE			RTHI			RANK			RTIP			RTOE			RMT1			RMT5			RHEE			
		X1	Y1	Z1	X2	Y2	Z2	X3	Y3	Z3	X4	Y4	Z4	X5	Y5	Z5	X6	Y6	Z6	X7	Y7	Z7	X8	Y8	Z8	X9	Y9	Z9	X10	Y10	Z10	X11	Y11	Z11	X12	Y12	Z12	X13	Y13	Z13	X14	Y14	Z14	X15	Y15	Z15	X16	Y16	Z16	X17	Y17	Z17	X18	Y18	Z18	X19	Y19	Z19	X20	Y20	Z20	X21	Y21	Z21	X22	Y22	Z22	X23	Y23	Z23	X24	Y24	Z24	X25	Y25	Z25	X26	Y26	Z26	X27	Y27	Z27	X28	Y28	Z28	X29	Y29	Z29	X30	Y30	Z30	X31	Y31	Z31	X32	Y32	Z32	X33	Y33	Z33	X34	Y34	Z34	X35	Y35	Z35	X36	Y36	Z36	X37	Y37	Z37	X38	Y38	Z38	X39	Y39	Z39	X40	Y40	Z40	X41	Y41	Z41	X42	Y42	Z42	X43	Y43	Z43	X44	Y44	Z44	X45	Y45	Z45	X46	Y46	Z46	X47	Y47	Z47	X48	Y48	Z48	X49	Y49	Z49	X50	Y50	Z50	X51	Y51	Z51	X52	Y52	Z52	X53	Y53	Z53	

1	0	-1299.607299804688	965.757080078125	-499.309814453125	-1316.162353515625	971.399169921875	-640.3366088867188	-1287.715698242188	1064.821411132812	-548.396484375	-1011.432739257812	1256.170776367188	-568.3211059570312	-1301.984619140625	1189.975463867188	-539.7562866210938	-1222.26318359375	1454.169677734375	-516.2728881835938	-1044.423950195312	1369.706787109375	-557.80126953125	-1278.975952148438	1327.880981445312	-422.8142395019531	-1269.859619140625	1416.615844726562	-614.0542602539062	-1177.463134765625	1444.713256835938	-704.8715209960938	-1195.011474609375	1330.954833984375	-807.8104858398438	-1166.110229492188	1115.080200195312	-847.6163940429688	-1239.60302734375	1094.31103515625	-778.2460327148438	-1059.169311523438	928.2615356445312	-810.8158569335938	-1106.8984375	907.8629760742188	-864.8265380859375	-1135.616943359375	1030.855224609375	-858.3963012695312	-1013.725219726562	770.5924072265625	-843.6903076171875	-1081.899780273438	836.7346801757812	-875.5117797851562	-1024.918090820312	853.489990234375	-833.6646728515625	-1140.286987304688	1411.385009765625	-367.8296203613281	-1151.129638671875	1346.999145507812	-294.0437927246094	-1127.238891601562	1061.173950195312	-242.0896911621094	-1182.358032226562	1041.828857421875	-275.5573120117188	-1018.660583496094	865.2557373046875	-305.9609985351562	-1076.369873046875	845.2295532226562	-240.9810180664062	-1117.390502929688	1002.756103515625	-234.9274749755859	-1000.73583984375	710.697265625	-294.7897033691406	-992.6427612304688	770.233642578125	-294.2106323242188	-1052.255493164062	760.716064453125	-246.3650665283203	-1075.835327148438	1642.088623046875	-433.4572448730469	-964.07470703125	1625.60009765625	-606.822509765625	-946.2280883789062	1618.87353515625	-477.5229187011719	-1112.948852539062	1660.8955078125	-606.1732177734375	-1193.98779296875	877.6583251953125	-780.972412109375	-1169.886474609375	854.4411010742188	-380.4896545410156	-1073.574462890625	897.2135620117188	-451.6887817382812	-1087.595092773438	913.1249389648438	-707.9317016601562	-1134.8291015625	455.0958557128906	-774.6632080078125	-1130.71240234375	610.3325805664062	-791.5879516601562	-1240.804809570312	45.89073944091797	-790.731201171875	-1155.766235351562	306.0979919433594	-795.184326171875	-1007.50537109375	45.36761474609375	-726.26416015625	-1081.319458007812	56.30474853515625	-695.0628662109375	-1087.19775390625	46.51852416992188	-807.1754150390625	-1282.729736328125	52.61808013916016	-724.5261840820312	-1147.938354492188	465.048828125	-429.3608703613281	-1122.325317382812	723.4002075195312	-384.7436218261719	-1214.752685546875	43.02530670166016	-434.4901428222656	-1149.284057617188	321.5988159179688	-426.1288757324219	-1009.241088867188	46.60740661621094	-517.6659545898438	-1077.454467773438	51.70476531982422	-543.38330078125	-1077.458618164062	48.2778434753418	-434.3826904296875	-1287.720092773438	34.32153701782227	-470.6369018554688	
2	0.01	-1299.946411132812	965.89453125	-498.5560913085938	-1316.875366210938	971.5361328125	-639.5204467773438	-1288.011840820312	1065.063720703125	-547.567138671875	-1011.693420410156	1256.190063476562	-568.45703125	-1302.140869140625	1190.2041015625	-538.7735595703125	-1222.12841796875	1454.318359375	-515.6246948242188	-1044.52197265625	1369.740966796875	-557.847900390625	-1278.538818359375	1328.107055664062	-421.9161376953125	-1270.135498046875	1416.805786132812	-613.2139282226562	-1178.034423828125	1444.816040039062	-704.3692016601562	-1196.044311523438	1331.104614257812	-807.203857421875	-1167.564331054688	1115.207153320312	-847.1804809570312	-1240.767822265625	1094.484619140625	-777.5479736328125	-1060.442504882812	928.4591064453125	-810.6953735351562	-1108.305053710938	907.9967041015625	-864.53076171875	-1137.05419921875	1030.968505859375	-858.0781860351562	-1015.103942871094	770.7078857421875	-843.9606323242188	-1083.40966796875	836.923095703125	-875.3677978515625	-1026.309814453125	853.640625	-833.7362670898438	-1139.546264648438	1411.470092773438	-367.502197265625	-1150.148803710938	1347.12744140625	-293.6441040039062	-1126.601928710938	1061.268188476562	-241.8874053955078	-1181.99365234375	1042.125122070312	-274.9949951171875	-1019.137451171875	864.868408203125	-305.8906860351562	-1076.730346679688	845.1109008789062	-240.7265319824219	-1116.962890625	1002.793334960938	-234.7605133056641	-1001.973449707031	710.129150390625	-294.7189331054688	-993.5892333984375	769.6463012695312	-294.2274475097656	-1053.1123046875	760.4791870117188	-246.1344909667969	-1075.371459960938	1642.149658203125	-433.3437194824219	-964.16650390625	1625.620971679688	-607.006591796875	-946.008544921875	1618.877807617188	-477.7838745117188	-1113.050048828125	1660.967407226562	-605.9955444335938	-1194.811889648438	877.9063110351562	-780.5133056640625	-1170.042114257812	854.4047241210938	-380.0634155273438	-1073.854248046875	897.2032470703125	-451.5177917480469	-1088.448608398438	913.2994384765625	-707.5946655273438	-1134.23291015625	455.4519958496094	-774.7567138671875	-1130.472778320312	610.751708984375	-791.593505859375	-1240.98388671875	46.12853622436523	-790.5553588867188	-1155.488037109375	306.4382019042969	-795.1925048828125	-1007.535766601562	45.52936172485352	-726.5491943359375	-1081.267822265625	56.79481887817383	-695.1635131835938	-1087.533447265625	46.67741775512695	-807.1248168945312	-1282.738891601562	53.26182174682617	-724.2003173828125	-1148.458984375	465.0787963867188	-429.1993713378906	-1122.57421875	723.3909912109375	-384.5762939453125	-1214.763427734375	43.01567459106445	-434.4907836914062	-1149.67578125	321.6544189453125	-425.9594116210938	-1009.2626953125	46.62632751464844	-517.6797485351562	-1077.458129882812	51.68098068237305	-543.3974609375	-1077.457275390625	48.28965377807617	-434.4161376953125	-1287.7265625	34.28287506103516	-470.6192932128906	
3	0.02	-1300.3740234375	966.0576782226562	-497.6612854003906	-1317.73779296875	971.7010498046875	-638.56201171875	-1288.392944335938	1065.350219726562	-546.5547485351562	-1012.016662597656	1256.221069335938	-568.6546630859375	-1302.343627929688	1190.479858398438	-537.5942993164062	-1221.97900390625	1454.506103515625	-514.8674926757812	-1044.65771484375	1369.793212890625	-557.9515380859375	-1278.01806640625	1328.3876953125	-420.83837890625	-1270.488403320312	1417.0283203125	-612.212646484375	-1178.754150390625	1444.929321289062	-703.7867431640625	-1197.341430664062	1331.273193359375	-806.496337890625	-1169.387451171875	1115.353637695312	-846.678955078125	-1242.226318359375	1094.68798828125	-776.7080688476562	-1062.072387695312	928.6649780273438	-810.6104736328125	-1110.115356445312	908.13671875	-864.2224731445312	-1138.883422851562	1031.093139648438	-857.7245483398438	-1016.891967773438	770.8335571289062	-844.3165893554688	-1085.351928710938	837.1043701171875	-875.236572265625	-1028.097290039062	853.781494140625	-833.9050903320312	-1138.646484375	1411.580688476562	-367.1434936523438	-1148.942749023438	1347.283813476562	-293.2013549804688	-1125.8154296875	1061.390258789062	-241.6819458007812	-1181.531860351562	1042.5029296875	-274.3510131835938	-1019.724365234375	864.3721923828125	-305.8611450195312	-1077.16943359375	844.9672241210938	-240.4461669921875	-1116.420776367188	1002.85302734375	-234.6111602783203	-1003.554931640625	709.4251708984375	-294.6255493164062	-994.800537109375	768.909423828125	-294.2602233886719	-1054.19189453125	760.194091796875	-245.8566436767578	-1074.851318359375	1642.233276367188	-433.2521057128906	-964.2921752929688	1625.662475585938	-607.2650756835938	-945.7603759765625	1618.9013671875	-478.1329956054688	-1113.191162109375	1661.060668945312	-605.8176879882812	-1195.7939453125	878.2284545898438	-779.975341796875	-1170.267211914062	854.3687133789062	-379.5526733398438	-1074.201538085938	897.1859741210938	-451.311767578125	-1089.458251953125	913.541015625	-707.183837890625	-1133.4365234375	455.8941040039062	-774.8825073242188	-1130.147827148438	611.2831420898438	-791.5914916992188	-1241.287841796875	46.44142913818359	-790.2562255859375	-1155.167114257812	306.8299255371094	-795.2022705078125	-1007.625244140625	45.81489944458008	-726.9100952148438	-1081.257568359375	57.44709777832031	-695.2698364257812	-1088.01904296875	46.90185165405273	-807.0345458984375	-1282.802978515625	54.04972457885742	-723.7139892578125	-1149.112426757812	465.1185302734375	-428.9800720214844	-1122.903076171875	723.3818359375	-384.3720703125	-1214.77734375	43.00330352783203	-434.4908447265625	-1150.172973632812	321.7228698730469	-425.7381591796875	-1009.288269042969	46.64790725708008	-517.6953735351562	-1077.463134765625	51.65764617919922	-543.4119873046875	-1077.457885742188	48.30265045166016	-434.4522705078125	-1287.734985351562	34.23926162719727	-470.5989074707031	
4	0.03	-1300.87109375	966.2352294921875	-496.6919555664062	-1318.69580078125	971.8834838867188	-637.5350952148438	-1288.845581054688	1065.66015625	-545.423828125	-1012.389099121094	1256.263061523438	-568.9164428710938	-1302.5869140625	1190.785766601562	-536.2963256835938	-1221.832885742188	1454.723022460938	-514.0614013671875	-1044.831909179688	1369.865234375	-558.1279907226562	-1277.44921875	1328.708618164062	-419.6535949707031	-1270.907348632812	1417.26611328125	-611.1193237304688	-1179.596069335938	1445.041748046875	-703.174072265625	-1198.850952148438	1331.443237304688	-805.7442016601562	-1171.503540039062	1115.506469726562	-846.1552124023438	-1243.915893554688	1094.905395507812	-775.7783813476562	-1064.010986328125	928.8465576171875	-810.5993041992188	-1112.279296875	908.262939453125	-863.9468383789062	-1141.040771484375	1031.213500976562	-857.3748168945312	-1019.067443847656	770.9395141601562	-844.7691040039062	-1087.674926757812	837.2479858398438	-875.1505737304688	-1030.24072265625	853.878173828125	-834.2042236328125	-1137.64306640625	1411.71337890625	-366.79296875	-1147.578125	1347.459228515625	-292.7624816894531	-1124.919067382812	1061.536376953125	-241.5075378417969	-1180.9912109375	1042.943969726562	-273.6884765625	-1020.403015136719	863.7842407226562	-305.8961181640625	-1077.667846679688	844.809814453125	-240.1668090820312	-1115.787841796875	1002.93896484375	-234.5107727050781	-1005.419006347656	708.6199340820312	-294.510009765625	-996.233642578125	768.059326171875	-294.3153381347656	-1055.446655273438	759.8833618164062	-245.5447845458984	-1074.327026367188	1642.338989257812	-433.2113647460938	-964.4536743164062	1625.7294921875	-607.6018676757812	-945.5084228515625	1618.951416015625	-478.5664367675781	-1113.373291015625	1661.170776367188	-605.6705322265625	-1196.859985351562	878.6090698242188	-779.3972778320312	-1170.568237304688	854.3377075195312	-378.9891967773438	-1074.604248046875	897.1613159179688	-451.0780639648438	-1090.550903320312	913.8485717773438	-706.71923828125	-1132.457153320312	456.3973388671875	-775.0330810546875	-1129.737426757812	611.90576171875	-791.5791015625	-1241.751220703125	46.83301162719727	-789.8097534179688	-1154.830200195312	307.2398376464844	-795.208740234375	-1007.807373046875	46.25483322143555	-727.3260498046875	-1081.323608398438	58.24937057495117	-695.365478515625	-1088.6689453125	47.19747543334961	-806.8977661132812	-1282.952270507812	54.93194961547852	-723.0468139648438	-1149.869262695312	465.1659545898438	-428.70947265625	-1123.308715820312	723.3761596679688	-384.1397094726562	-1214.793823242188	42.98831558227539	-434.4901428222656	-1150.754760742188	321.8004760742188	-425.4734191894531	-1009.316101074219	46.67082214355469	-517.711669921875	-1077.468139648438	51.63426971435547	-543.4248046875	-1077.462280273438	48.31450271606445	-434.4863891601562	-1287.745239257812	34.19407653808594	-470.5779113769531	
